<?xml version="1.0" encoding="UTF-8"?>
<svg width="50px" height="50px" viewBox="0 0 50 50" version="1.1" xmlns="http://www.w3.org/2000/svg" xmlns:xlink="http://www.w3.org/1999/xlink">
    <!-- Generator: Sketch 52.4 (67378) - http://www.bohemiancoding.com/sketch -->
    <title>Shape</title>
    <desc>Created with Sketch.</desc>
    <g id="Page-1" stroke="none" stroke-width="1" fill="none" fill-rule="evenodd">
        <g id="Perfects.Engineering-Light-Mode" transform="translate(-253.000000, -786.000000)" fill="#FFFFFF" fill-rule="nonzero">
            <g id="Blog" transform="translate(235.000000, 768.000000)">
                <g id="blogging" transform="translate(18.000000, 18.000000)">
                    <path d="M24.9023437,19.7276161 C25.9811401,19.7276161 26.8554688,20.6019914 26.8554688,21.6808454 C26.8554688,22.7596994 25.9811401,23.6340747 24.9023437,23.6340747 C23.8235474,23.6340747 22.9492187,22.7596994 22.9492187,21.6808454 C22.9492187,20.6019914 23.8235474,19.7276161 24.9023437,19.7276161 Z M31.7382812,21.6808454 C31.7382812,22.7596994 32.6126099,23.6340747 33.6914062,23.6340747 C34.7702026,23.6340747 35.6445312,22.7596994 35.6445312,21.6808454 C35.6445312,20.6019914 34.7702026,19.7276161 33.6914062,19.7276161 C32.6126099,19.7276161 31.7382812,20.6019914 31.7382812,21.6808454 Z M14.1601562,21.6808454 C14.1601562,22.7596994 15.0344849,23.6340747 16.1132812,23.6340747 C17.1920776,23.6340747 18.0664062,22.7596994 18.0664062,21.6808454 C18.0664062,20.6019914 17.1920776,19.7276161 16.1132812,19.7276161 C15.0344849,19.7276161 14.1601562,20.6019914 14.1601562,21.6808454 Z M48.2826232,39.9984741 C50.5683898,42.2843627 50.5683898,46.0016023 48.2837677,48.2863465 C47.1416474,49.4285279 45.6409454,50 44.140625,50 C42.6403046,50 41.1396026,49.4285279 39.9974823,48.2863465 L29.2758941,37.5882196 C29.0481567,37.3608516 28.8803101,37.0812192 28.78685,36.7729752 L26.4514923,29.0848053 C26.2443543,28.4030824 26.4247895,27.6629916 26.922226,27.1529394 C27.4196625,26.6432686 28.1551361,26.4448938 28.8417816,26.6348758 L36.7248535,28.8185252 C37.0494843,28.9085568 37.3451232,29.0806088 37.5835419,29.3186587 L48.2826232,39.9984741 Z M32.3818207,35.1688094 L39.617157,42.3885095 L42.3797607,39.6257583 L35.187149,32.446496 L31.2213897,31.3478045 L32.3818207,35.1688094 Z M45.5215454,42.7619883 L45.1446533,42.3854576 L42.3824311,45.1478274 L42.7581787,45.5224507 C43.5211182,46.2858124 44.7601318,46.2858124 45.5215454,45.5239767 C46.2833404,44.7625224 46.2833404,43.5234426 45.5215454,42.7619883 Z M26.0864258,40.4760997 C25.7255555,40.4917407 25.3601074,40.499752 25,40.499752 C21.8593598,40.499752 18.8358307,39.9149277 16.0137177,38.7616832 C15.5330658,38.5655972 14.9936676,38.5686492 14.5153046,38.7704574 L5.62210078,42.5247016 L8.61854551,35.4263152 C8.91151426,34.7323847 8.77914434,33.9312555 8.27789307,33.3681761 C5.41801455,30.1552665 3.90625,26.3109907 3.90625,22.251936 C3.90625,12.1363445 13.3689881,3.90645863 25,3.90645863 C36.6310119,3.90645863 46.09375,12.1363445 46.09375,22.251936 C46.09375,24.6507458 45.5047607,27.0590928 44.3428039,29.4094534 C43.8648224,30.3765307 44.2611694,31.5480868 45.2281952,32.026094 C46.1952209,32.5041011 47.3667145,32.1077328 47.8446961,31.1406554 C49.2748261,28.247053 50,25.2565521 50,22.251936 C50,9.98207002 38.7851715,0 25,0 C11.21521,0 0,9.98207002 0,22.251936 C0,26.8832259 1.57012939,31.2692176 4.55436709,35.009728 L0.153732324,45.4343265 C-0.155258203,46.166406 0.010299707,47.0129326 0.57220459,47.5748675 C0.946044922,47.9487278 1.44538877,48.1471026 1.95350645,48.1471026 C2.20947266,48.1471026 2.46772764,48.0967459 2.71263125,47.9933621 L15.303421,42.6780605 C18.3742523,43.8252013 21.6323853,44.4062106 25,44.4062106 C25.4165649,44.4062106 25.8396148,44.3966734 26.2573242,44.3787433 C27.3349762,44.3314387 28.1703949,43.4196773 28.1230927,42.3419678 C28.0761719,41.2642583 27.1625519,40.4261244 26.0864258,40.4760997 Z" id="Shape"></path>
                </g>
            </g>
        </g>
    </g>
</svg>