<?xml version="1.0" encoding="UTF-8"?>
<svg width="55px" height="52px" viewBox="0 0 55 52" version="1.1" xmlns="http://www.w3.org/2000/svg" xmlns:xlink="http://www.w3.org/1999/xlink">
    <!-- Generator: Sketch 52.4 (67378) - http://www.bohemiancoding.com/sketch -->
    <title>tutorial</title>
    <desc>Created with Sketch.</desc>
    <g id="Page-1" stroke="none" stroke-width="1" fill="none" fill-rule="evenodd">
        <g id="Perfects.Engineering-Light-Mode" transform="translate(-781.000000, -774.000000)" fill="#FFFFFF">
            <g id="YouTube" transform="translate(766.000000, 757.000000)">
                <g id="tutorial" transform="translate(16.000000, 18.000000)">
                    <path d="M50.35,0 L2.65,0 C1.18654788,0 0,1.19934085 0,2.67857143 L0,36.6071429 C0,38.0863734 1.18654788,39.2857143 2.65,39.2857143 L18.4326823,39.2857143 L17.7701823,44.6428571 L16.7833333,44.6428571 C16.2955159,44.6428571 15.9,45.0426374 15.9,45.5357143 L15.9,48.2142857 L12.3666667,48.2142857 L12.3666667,50 L40.6333333,50 L40.6333333,48.2142857 L37.1,48.2142857 L37.1,45.5357143 C37.1,45.0426374 36.7044841,44.6428571 36.2166667,44.6428571 L35.2298177,44.6428571 L34.5673177,39.2857143 L50.35,39.2857143 C51.8134521,39.2857143 53,38.0863734 53,36.6071429 L53,2.67857143 C53,1.19934085 51.8134521,0 50.35,0 Z M2.65,1.78571429 L50.35,1.78571429 C50.8378174,1.78571429 51.2333333,2.18549453 51.2333333,2.67857143 L51.2333333,30.3571429 L1.76666667,30.3571429 L1.76666667,2.67857143 C1.76666667,2.18549453 2.16218259,1.78571429 2.65,1.78571429 Z M35.3333333,48.2142857 L17.6666667,48.2142857 L17.6666667,46.4285714 L35.3333333,46.4285714 L35.3333333,48.2142857 Z M33.449349,44.6428571 L19.550651,44.6428571 L20.213151,39.2857143 L32.786849,39.2857143 L33.449349,44.6428571 Z M50.35,37.5 L2.65,37.5 C2.16218259,37.5 1.76666667,37.1002198 1.76666667,36.6071429 L1.76666667,32.1428571 L51.2333333,32.1428571 L51.2333333,36.6071429 C51.2333333,37.1002198 50.8378174,37.5 50.35,37.5 Z" id="Shape" stroke="#FFFFFF" fill-rule="nonzero"></path>
                    <polygon id="Path" points="44.1666667 33.7837838 47.5641026 33.7837838 47.5641026 35.8108108 44.1666667 35.8108108"></polygon>
                    <path d="M17.8176638,24.4149345 L17.8176638,27.2200772 L13.4764957,27.2200772 L13.4764957,29.0540541 L23.8952991,29.0540541 L23.8952991,27.2200772 L19.5541311,27.2200772 L19.5541311,24.4149345 C23.5061202,23.9439033 26.4940648,20.4165425 26.5,16.2162162 L24.7635328,16.2162162 C24.7635328,19.7614869 22.0426718,22.6351351 18.6858974,22.6351351 C15.3291231,22.6351351 12.6082621,19.7614869 12.6082621,16.2162162 L10.8717949,16.2162162 C10.8777301,20.4165425 13.8656747,23.9439033 17.8176638,24.4149345 Z" id="Path"></path>
                    <path d="M18.6858974,20.2702703 C21.1241217,20.2672391 23.0995449,18.2840089 23.1025641,15.8361486 L23.1025641,10.5152027 C23.1025641,8.06647633 21.1249844,6.08108108 18.6858974,6.08108108 C16.2468105,6.08108108 14.2692308,8.06647633 14.2692308,10.5152027 L14.2692308,15.8361486 C14.27225,18.2840089 16.2476732,20.2672391 18.6858974,20.2702703 Z M18.6858974,7.85472973 C20.1493496,7.85472973 21.3358974,9.04596692 21.3358974,10.5152027 L19.5692308,10.5152027 L19.5692308,12.2888514 L21.3358974,12.2888514 L21.3358974,14.0625 L19.5692308,14.0625 L19.5692308,15.8361486 L21.3358974,15.8361486 C21.3358974,17.3053844 20.1493496,18.4966216 18.6858974,18.4966216 C17.2224453,18.4966216 16.0358974,17.3053844 16.0358974,15.8361486 L17.8025641,15.8361486 L17.8025641,14.0625 L16.0358974,14.0625 L16.0358974,12.2888514 L17.8025641,12.2888514 L17.8025641,10.5152027 L16.0358974,10.5152027 C16.0358974,9.04596692 17.2224453,7.85472973 18.6858974,7.85472973 Z" id="Shape" fill-rule="nonzero"></path>
                    <polygon id="Path" points="5.43589744 3.37837838 8.83333333 3.37837838 8.83333333 5.40540541 5.43589744 5.40540541"></polygon>
                    <polygon id="Path" points="5.43589744 6.75675676 8.83333333 6.75675676 8.83333333 8.78378378 5.43589744 8.78378378"></polygon>
                    <path d="M12.9732647,8.10810811 L14.2692308,6.6963067 L13.3527465,5.6979057 C13.1809057,5.51070551 12.9477571,5.40540541 12.7047634,5.40540541 L10.8717949,5.40540541 L10.8717949,7.4022074 L12.3252817,7.4022074 L12.9732647,8.10810811 Z" id="Path"></path>
                    <polygon id="Path" points="29.2179487 5.40540541 32.6153846 5.40540541 32.6153846 7.43243243 29.2179487 7.43243243"></polygon>
                    <polygon id="Path" points="29.2179487 8.78378378 32.6153846 8.78378378 32.6153846 10.8108108 29.2179487 10.8108108"></polygon>
                    <path d="M25.7260004,8.75355875 L27.1794872,8.75355875 L27.1794872,6.75675676 L25.3465186,6.75675676 C25.1035249,6.75675676 24.8703764,6.86205686 24.6985356,7.04925705 L23.7820513,8.04765805 L25.0780173,9.45945946 L25.7260004,8.75355875 Z" id="Path"></path>
                    <path d="M36.2069597,28.3783784 L46.6904762,28.3783784 C47.172933,28.3783784 47.5641026,27.9749965 47.5641026,27.4774775 L47.5641026,19.3693694 C47.5611165,16.8826542 45.6074013,14.8679441 43.1959707,14.8648649 L39.7014652,14.8648649 C37.2900346,14.8679441 35.3363194,16.8826542 35.3333333,19.3693694 L35.3333333,27.4774775 C35.3333333,27.9749965 35.7245029,28.3783784 36.2069597,28.3783784 Z M45.8168498,19.3693694 L45.8168498,26.5765766 L42.3223443,26.5765766 L42.3223443,20.4827386 L44.0862335,16.837785 C45.1211053,17.2231313 45.8125841,18.2344454 45.8168498,19.3693694 Z M42.2157005,16.6666667 L41.4487179,18.2520411 L40.6817354,16.6666667 L42.2157005,16.6666667 Z M37.0805861,19.3693694 C37.0848518,18.2344454 37.7763305,17.2231313 38.8112024,16.837785 L40.5750916,20.4827386 L40.5750916,26.5765766 L37.0805861,26.5765766 L37.0805861,19.3693694 Z" id="Shape" fill-rule="nonzero"></path>
                    <path d="M45.9786325,10.4469854 L45.9786325,9.56340956 C46.478958,9.56340956 46.8846154,9.16778504 46.8846154,8.67983368 C46.8846154,5.75212575 44.450671,3.37837838 41.4487179,3.37837838 C38.4467649,3.37837838 36.0128205,5.75212575 36.0128205,8.67983368 C36.0128205,9.16778504 36.4184779,9.56340956 36.9188034,9.56340956 L36.9188034,10.4469854 C36.9188034,12.8867421 38.9470903,14.8648649 41.4487179,14.8648649 C43.9503456,14.8648649 45.9786325,12.8867421 45.9786325,10.4469854 Z M41.4487179,5.14553015 C42.9996828,5.14768729 44.3776793,6.10978413 44.8797743,7.54084914 C44.1843616,7.22805986 43.5469001,6.80439207 42.9943744,6.28710334 C42.6404748,5.94281932 42.0680422,5.94281932 41.7141426,6.28710334 C40.5555639,6.88722731 39.309395,7.30873795 38.0185464,7.53739767 C38.5215261,6.10805839 39.8990802,5.14725588 41.4487179,5.14553015 Z M41.4487179,13.0977131 C39.9477414,13.0977131 38.7307692,11.9108394 38.7307692,10.4469854 L38.7307692,9.18978818 C39.9503956,8.92531933 41.1372863,8.5340092 42.2715345,8.02232897 C42.847506,8.48439432 43.4849676,8.8675073 44.1666667,9.16217643 L44.1666667,10.4469854 C44.1666667,11.9108394 42.9496945,13.0977131 41.4487179,13.0977131 Z" id="Shape" fill-rule="nonzero"></path>
                </g>
            </g>
        </g>
    </g>
</svg>